<svg xmlns="http://www.w3.org/2000/svg" viewBox="0 0 192 192" width="192" height="192">
  <rect width="192" height="192" rx="32" fill="#2d5a27"/>
  <rect x="24" y="24" width="144" height="48" rx="8" fill="#e8f0e3"/>
  <g fill="#e8f0e3">
    <!-- Row 1 -->
    <rect x="24" y="84" width="30" height="30" rx="6"/>
    <rect x="62" y="84" width="30" height="30" rx="6"/>
    <rect x="100" y="84" width="30" height="30" rx="6"/>
    <rect x="138" y="84" width="30" height="30" rx="6"/>
    <!-- Row 2 -->
    <rect x="24" y="122" width="30" height="30" rx="6"/>
    <rect x="62" y="122" width="30" height="30" rx="6"/>
    <rect x="100" y="122" width="30" height="30" rx="6"/>
    <rect x="138" y="122" width="30" height="46" rx="6"/>
    <!-- Row 3 -->
    <rect x="24" y="160" width="68" height="30" rx="6"/>
    <rect x="100" y="160" width="30" height="30" rx="6"/>
  </g>
  <!-- Display text -->
  <text x="156" y="56" font-family="Arial, sans-serif" font-size="28" font-weight="bold" fill="#2d5a27" text-anchor="end">123</text>
</svg>
